<?xml version="1.0" encoding="UTF-8" standalone="no"?>
<svg
   xmlns:dc="http://purl.org/dc/elements/1.1/"
   xmlns:cc="http://creativecommons.org/ns#"
   xmlns:rdf="http://www.w3.org/1999/02/22-rdf-syntax-ns#"
   xmlns:svg="http://www.w3.org/2000/svg"
   xmlns="http://www.w3.org/2000/svg"
   viewBox="0 0 337.33334 338.66666"
   height="338.66666"
   width="337.33334"
   xml:space="preserve"
   id="svg2"
   version="1.1"><metadata
     id="metadata8"><rdf:RDF><cc:Work
         rdf:about=""><dc:format>image/svg+xml</dc:format><dc:type
           rdf:resource="http://purl.org/dc/dcmitype/StillImage" /></cc:Work></rdf:RDF></metadata><defs
     id="defs6"><clipPath
       id="clipPath20"
       clipPathUnits="userSpaceOnUse"><path
         id="path18"
         d="M 70,80 H 2450 V 2470 H 70 Z" /></clipPath></defs><g
     transform="matrix(1.3333333,0,0,-1.3333333,0,338.66667)"
     id="g10"><g
       transform="scale(0.1)"
       id="g12"><g
         id="g14"><g
           clip-path="url(#clipPath20)"
           id="g16"><path
             id="path22"
             style="fill:#2b2859;fill-opacity:1;fill-rule:evenodd;stroke:none"
             d="M 71.3711,1275.62 C 71.3711,616.559 603.871,81.2109 1260.08,81.2109 v 49.6871 c -629.49,0 -1138.99,512.383 -1138.99,1144.722 0,631.1 509.5,1145.9 1138.99,1145.9 628.2,0 1140.08,-514.8 1140.08,-1145.9 0,-632.339 -511.88,-1144.722 -1140.08,-1144.722 V 81.2109 c 654.88,0 1188.55,535.3481 1188.55,1194.4091 0,657.7 -533.67,1193.17 -1188.55,1193.17 -656.209,0 -1188.7089,-535.47 -1188.7089,-1193.17" /><path
             id="path24"
             style="fill:#2b2859;fill-opacity:1;fill-rule:evenodd;stroke:none"
             d="m 401.289,1275.62 c 0,-476.089 384.449,-863.71 858.791,-863.71 v 32.66 c -456.1,0 -826.06,371.91 -826.06,831.05 0,457.9 369.96,829.81 826.06,829.81 455.94,0 825.9,-371.91 825.9,-829.81 0,-459.14 -369.96,-831.05 -825.9,-831.05 v -32.66 c 472.97,0 858.63,387.621 858.63,863.71 0,474.85 -385.66,862.47 -858.63,862.47 -474.342,0 -858.791,-387.62 -858.791,-862.47" /><path
             id="path26"
             style="fill:#2b2859;fill-opacity:1;fill-rule:evenodd;stroke:none"
             d="m 979.801,1955.16 c -2.422,-9.77 -6.012,-19.42 -13.321,-31.53 -9.718,-9.65 -17.031,-16.91 -26.64,-24.14 l 9.609,-21.72 c 17.031,12.07 27.93,25.32 37.699,38.6 l 41.132,-90.71 34.02,15.59 -53.35,124.84 z" /><path
             id="path28"
             style="fill:#2b2859;fill-opacity:1;fill-rule:evenodd;stroke:none"
             d="m 1158.09,1887.34 v -23.04 c -13.36,-1.18 -23.05,0 -30.28,3.63 -12.15,4.84 -17.03,12.27 -23.08,23.09 l 37.65,8.47 c 2.35,-6.09 4.81,-8.47 8.44,-9.65 1.17,-2.5 3.63,-2.5 7.27,-2.5 m 0,117.5 v -20.58 c -2.5,0 -3.64,0 -6.1,-2.39 -7.26,0 -13.24,-3.71 -16.95,-7.38 -3.63,-3.63 -6.02,-12.03 -3.63,-19.33 0,-9.77 3.63,-15.79 9.68,-19.42 3.64,-2.42 10.9,-3.47 17,-2.42 v -20.51 c -17,-2.38 -30.28,0 -43.6,7.19 -12.15,6.13 -19.41,15.74 -21.87,29.1 -1.17,13.36 2.46,25.39 13.36,36.33 9.68,9.88 25.43,15.7 44.84,19.41 z m 43.71,-9.53 c -10.94,8.28 -26.72,11.96 -43.71,9.53 v -20.58 c 3.71,0 9.76,-2.39 15.78,-6.1 4.88,-3.67 9.72,-9.61 10.9,-16.95 0,-8.51 -1.18,-13.24 -6.02,-19.49 -3.67,-3.52 -10.9,-8.4 -16.95,-8.4 h -3.71 v -20.51 c 13.36,1.17 25.5,7.19 33.94,17.07 0,-15.9 -1.17,-26.79 -4.8,-32.77 -6.02,-6.09 -12.15,-9.77 -19.38,-9.77 -3.63,-1.25 -7.3,-1.25 -9.76,0 v -23.04 h 9.76 c 20.55,3.63 38.71,13.47 49.69,25.54 13.4,13.25 16.95,32.66 13.4,58.13 -3.71,22.89 -13.4,39.92 -29.14,47.34" /><path
             id="path30"
             style="fill:#2b2859;fill-opacity:1;fill-rule:evenodd;stroke:none"
             d="m 1330.35,2008.52 v -20.63 c -3.63,-2.46 -4.88,-2.46 -7.26,-2.46 -3.71,-1.17 -7.35,-4.81 -9.73,-9.69 -3.63,-7.19 -6.06,-19.41 -7.27,-34.02 -2.42,-15.59 -2.42,-27.74 0,-32.62 1.21,-6.01 3.64,-9.61 7.27,-13.2 3.63,-2.5 7.27,-4.88 12.11,-4.88 h 4.88 v -20.71 h -7.26 c -19.42,2.46 -34.03,7.46 -46.1,20.71 -9.72,9.64 -15.82,28.98 -10.9,56.95 1.18,24.14 10.9,41.09 24.18,50.78 12.19,8.52 23.09,12.15 40.08,9.77 m 8.44,0 h -8.44 v -20.63 c 2.42,0 3.63,0 6.06,-2.46 3.63,0 7.26,0 12.14,-3.56 3.6,-1.25 4.77,-6.13 7.27,-11.01 1.21,-5.94 1.21,-19.34 0,-35.12 -2.5,-15.74 -3.67,-26.64 -7.27,-32.65 -2.42,-5.98 -6.05,-9.69 -9.76,-9.69 -2.38,-2.38 -6.02,-2.38 -8.44,-2.38 v -20.71 c 15.78,-2.38 29.06,2.46 40,7.46 14.53,9.57 23.09,28.95 25.51,54.5 3.71,24.06 0,43.47 -13.32,56.79 -9.81,9.69 -25.51,18.21 -43.75,19.46" /><path
             id="path32"
             style="fill:#2b2859;fill-opacity:1;fill-rule:evenodd;stroke:none"
             d="m 1455.23,1985.43 -9.68,-20.51 82.5,-35.04 c -23.01,-7.38 -42.5,-17.07 -59.46,-30.39 -16.91,-15.86 -29.06,-31.56 -36.4,-48.51 l 35.19,-13.32 c 3.64,10.89 10.9,20.58 21.88,35.11 12.03,10.86 25.43,20.63 41.17,30.32 14.57,7.34 30.35,13.28 41.25,16.91 l 8.52,18.2 z" /><path
             id="path34"
             style="fill:#2b2859;fill-opacity:1;fill-rule:evenodd;stroke:none"
             d="m 567.379,1947.97 c -9.649,10.82 -32.609,33.9 -56.988,50.78 -21.719,18.2 -44.84,29.02 -58.2,19.41 -13.32,-9.64 -9.691,-14.57 -10.82,-26.6 -3.711,-7.3 -9.769,-13.4 -15.859,-19.45 -7.274,-6.02 -24.223,-16.95 -32.703,-28.99 -1.25,-7.38 -13.399,-3.75 -14.571,-9.8 -2.457,-4.8 -6.09,-9.69 -3.707,-14.53 7.348,-25.39 60.699,-77.54 60.699,-77.54 0,0 25.508,-25.43 25.508,-23.05 16.961,-19.33 36.332,-35.08 41.25,-38.71 9.653,-1.13 21.801,0 19.301,3.63 -9.648,18.25 -36.367,35.08 -47.23,50.9 -15.778,20.55 -32.688,36.29 -48.547,55.82 -3.563,3.56 -7.274,10.82 -10.903,16.88 -2.418,2.38 -2.418,7.26 0,13.28 1.211,3.63 7.34,9.88 13.36,18.2 7.261,13.32 19.41,26.72 24.222,39.96 4.84,3.71 12.11,9.73 12.11,9.73 6.09,6.06 17.027,3.67 23.121,1.17 7.308,-1.17 29.058,-20.51 55.738,-47.34 18.168,-18.09 23.129,-15.59 27.86,-36.17 2.531,-8.44 -7.27,-6.06 -7.27,-9.65 -3.551,-9.81 -3.551,-18.13 15.859,-23.13 3.59,-2.46 10.903,-5.93 14.493,-2.46 2.418,2.46 0,6.21 -1.211,13.32 -8.512,23.09 -3.629,32.74 -25.512,64.34" /><path
             id="path36"
             style="fill:#2b2859;fill-opacity:1;fill-rule:evenodd;stroke:none"
             d="m 475.27,1928.52 c 0,4.8 -3.711,10.85 -9.719,13.2 -8.52,1.4 -23.051,-19.22 -20.629,-22.93 0,-5.98 2.457,-12.07 6.098,-9.69 3.628,0 26.679,9.69 24.25,19.42" /><path
             id="path38"
             style="fill:#2b2859;fill-opacity:1;fill-rule:evenodd;stroke:none"
             d="m 514.102,1910.43 c -9.723,-1.33 -20.622,-3.71 -23.012,-3.71 -7.301,-9.61 -9.762,-15.7 -20.699,-26.52 1.168,0 -2.461,-9.89 1.168,-13.36 2.5,-6.1 8.601,-9.77 15.863,-13.4 6.058,-2.46 20.59,-6.02 26.68,9.68 2.378,7.19 -7.34,11.02 -12.114,13.4 v 3.68 h 6.024 c 0,1.13 13.277,-3.68 16.988,-3.68 4.879,9.57 12.148,22.97 4.879,33.91 -4.879,5.94 -8.59,2.38 -15.777,0" /><path
             id="path40"
             style="fill:#2b2859;fill-opacity:1;fill-rule:evenodd;stroke:none"
             d="m 918.012,2294.3 c 2.34,1.29 2.34,1.29 4.879,3.63 -8.512,9.69 -19.411,26.72 -23.051,25.47 -2.539,-2.38 -3.711,-2.38 -6.168,-8.48 -3.551,-6.13 -2.422,-10.86 9.808,-19.33 5.969,-1.29 9.61,-1.29 14.532,-1.29" /><path
             id="path42"
             style="fill:#2b2859;fill-opacity:1;fill-rule:evenodd;stroke:none"
             d="m 1005.31,2281.17 c 1.17,-2.65 3.64,-6.21 3.64,-9.84 -2.47,-8.44 -6.1,-12.07 -8.52,-15.71 -3.629,-6.13 -1.211,-13.32 2.42,-15.74 13.36,-3.71 15.78,18.24 15.78,36.33 0,8.44 -2.42,15.78 -2.42,21.72 2.42,6.13 13.28,10.86 15.78,9.69 1.21,-6.02 3.56,-15.63 9.65,-25.47 3.63,-9.49 13.4,-19.26 17.03,-20.51 16.99,-6.02 9.65,7.31 9.65,19.53 0,0.98 -2.38,0.98 -3.63,0.98 -4.81,0 -8.44,-0.98 -12.15,2.5 -1.17,1.21 -13.28,26.52 -13.28,30.27 2.38,3.63 12.11,8.48 13.28,13.32 2.5,4.96 0,12.11 -1.17,12.11 -4.92,-2.46 -31.53,-32.73 -35.16,-36.29 -3.55,-2.46 -7.26,-2.46 -9.73,0 -1.17,1.25 -3.63,14.49 17,42.42 6.01,9.61 4.8,9.61 0,13.32 -3.64,1.18 -8.52,-3.71 -14.53,-3.71 -6.1,0 -9.731,1.33 -9.731,3.71 -2.418,3.56 0,9.61 -2.418,13.25 -3.641,9.76 -19.422,3.63 -26.641,-6.02 -7.308,-9.61 -30.32,-53.28 -20.711,-61.72 9.77,-4.88 19.531,15.71 27.93,25.39 9.769,9.65 19.422,9.65 21.84,9.65 9.731,0 -12.071,-32.73 -3.629,-58.2 0,-5.94 -9.692,-13.2 -15.789,-9.49 0,0 -9.641,15.62 -16.949,19.33 -3.633,0 -9.723,-15.78 -3.633,-23.04 3.633,-9.69 23.051,-6.06 -6.09,-44.93 -7.309,-7.11 -7.309,-18.2 -7.309,-26.56 0,-10.9 3.629,-20.59 10.942,-20.59 9.718,-2.38 15.859,9.69 17.027,13.4 3.59,3.48 9.652,19.18 12.109,36.33 1.25,11.95 -2.457,22.89 1.25,32.66 4.801,7.3 9.653,13.4 18.162,21.91" /><path
             id="path44"
             style="fill:#2b2859;fill-opacity:1;fill-rule:evenodd;stroke:none"
             d="m 910.66,2251.95 c 9.692,13.32 6.059,24.26 -9.64,33.91 -4.891,2.42 -1.18,-10.9 -1.18,-20.59 1.18,-2.38 0,-13.32 0,-16.95 -2.539,-4.84 0,-18.16 10.82,3.63" /><path
             id="path46"
             style="fill:#2b2859;fill-opacity:1;fill-rule:evenodd;stroke:none"
             d="m 930.16,2153.83 v 26.68 c -2.461,6.05 -13.441,20.58 -23.129,49.65 -2.461,6.01 -9.73,6.01 -9.73,0 0,-3.56 12.148,-39.89 13.359,-62.97 2.43,-19.49 3.719,-38.79 6.059,-58.13 1.293,-10.9 19.492,-32.77 23.121,-30.35 3.601,1.33 5.98,4.92 1.211,23.09 -3.711,16.83 -7.34,33.9 -10.891,52.03" /><path
             id="path48"
             style="fill:#2b2859;fill-opacity:1;fill-rule:evenodd;stroke:none"
             d="m 1141.09,2307.62 c -2.34,1.17 -6.05,-2.31 -9.68,-2.31 -15.75,-1.25 -29.07,-3.71 -39.96,-1.25 -3.72,0 -8.52,1.25 -8.52,4.73 -1.21,2.38 0,6.13 0,12.23 0,3.63 -1.21,9.68 -4.84,9.68 -6.14,0 -12.15,-6.05 -13.4,-9.68 -4.81,-3.64 -6.02,-6.1 -6.02,-16.96 -2.42,-6.13 -2.42,-9.76 1.21,-12.07 4.81,-3.71 14.53,-3.71 23.05,-3.71 18.2,-2.42 38.75,-6.13 46.09,-2.42 8.44,2.42 15.71,8.44 18.17,9.73 1.25,4.84 1.25,9.72 -6.1,12.03" /><path
             id="path50"
             style="fill:#2b2859;fill-opacity:1;fill-rule:evenodd;stroke:none"
             d="m 1078.09,2253.2 c -6.14,2.42 -9.77,-1.25 -15.79,-7.38 -6.05,-5.94 -2.42,-30.16 -9.76,-40 0,1.25 -3.63,3.63 -6.09,9.84 -1.18,3.56 -1.18,8.36 -7.19,10.94 -3.71,2.42 -3.71,-3.75 -7.27,-7.38 -6.09,-8.44 -9.72,-13.4 -12.15,-15.59 -9.72,-3.75 -4.88,15.59 -13.36,20.39 -3.63,6.14 -10.89,-4.8 -9.679,-14.57 0,-5.82 3.629,-15.7 3.629,-21.56 2.42,-6.21 2.42,-14.65 2.42,-17.11 3.63,-9.69 6.1,-21.76 12.11,-29.14 4.88,-7.19 13.32,-5.94 8.52,12.19 0,9.72 -8.52,26.68 -3.64,36.44 3.64,5.94 12.15,5.94 15.71,1.1 3.71,-4.81 3.71,-16.88 7.26,-18.13 3.64,-6.05 9.73,1.25 12.23,7.27 1.21,1.17 1.21,9.76 4.84,19.37 0,5.94 4.81,9.57 6.06,15.78 2.38,7.19 2.38,13.36 8.47,13.36 7.31,1.14 10.9,-8.63 14.54,-13.36 0,-6.21 2.5,-9.84 3.67,-18.2 2.46,-6.09 0,-24.22 0,-36.37 -1.17,-6.05 -1.17,-9.76 -1.17,-12.07 3.63,-3.67 7.26,-4.92 10.89,21.76 2.39,29.1 3.64,29.1 0,49.61 0,15.78 -17.03,31.56 -24.25,32.81" /><path
             id="path52"
             style="fill:#2b2859;fill-opacity:1;fill-rule:evenodd;stroke:none"
             d="m 1649.41,2300.43 c -9.76,-4.84 -31.6,-19.26 -44.88,-37.54 -14.53,-17.07 -17.07,-23.01 -23.2,-19.41 -4.77,0 -3.56,0 -13.28,6.01 -10.9,3.71 -19.42,3.71 -27.85,6.13 -8.52,2.5 -19.42,-6.13 -21.8,-12.14 -3.71,-7.31 0,-7.31 5.94,-10.94 3.71,-3.52 24.29,-9.69 30.43,-9.69 3.59,1.17 9.64,0 8.47,-3.63 0,-2.31 -25.43,-21.76 -35.19,-28.95 -9.65,-6.13 -29.07,-19.49 -32.7,-25.47 -7.34,-7.34 2.38,-13.47 8.44,-13.47 3.55,0 13.28,7.38 27.89,12.22 16.95,3.64 29.1,10.94 36.37,16.96 8.51,6.05 23.04,23.12 26.68,25.31 4.84,1.25 36.4,-21.68 44.92,-21.68 3.59,2.42 9.76,7.23 14.53,12.07 6.09,4.88 2.38,10.86 -4.77,10.86 -8.55,2.38 -25.54,8.59 -35.23,13.32 -9.65,6.21 -1.29,9.77 3.63,15.78 4.81,6.13 27.93,26.72 38.75,38.79 13.36,10.9 15.86,19.34 13.36,20.63 -2.38,6.01 -10.86,6.01 -20.51,4.84" /><path
             id="path54"
             style="fill:#2b2859;fill-opacity:1;fill-rule:evenodd;stroke:none"
             d="m 1603.13,2163.55 c -3.56,0 -8.4,-9.72 -12.04,-14.53 -1.09,-3.67 2.46,-10.93 2.46,-18.2 1.18,-8.52 10.98,-25.39 16.92,-29.02 3.71,-2.46 7.34,3.63 15.86,14.45 7.19,12.15 7.19,12.15 -2.46,25.39 -7.35,12.19 -13.4,21.91 -20.74,21.91" /><path
             id="path56"
             style="fill:#2b2859;fill-opacity:1;fill-rule:evenodd;stroke:none"
             d="m 2185.43,1933.32 c -3.63,8.4 -27.89,15.78 -34.02,19.38 -9.69,3.63 -2.43,9.76 -2.43,12.22 -1.13,3.63 -9.6,1.17 -13.28,5.94 -3.63,3.63 -3.63,9.76 -1.21,11.01 0,2.39 1.21,3.56 -2.42,7.19 -3.63,4.89 -3.63,0 -15.78,0 -10.9,0 -10.9,-1.17 -10.9,-3.63 0,-3.56 0,-7.27 -6.09,-9.69 -7.27,-1.25 -13.32,-3.63 -16.92,-9.65 -6.13,-7.3 -9.76,-9.76 -9.76,-10.93 0,-2.46 3.63,-3.64 6.09,-3.64 3.67,0 16.95,7.27 22.97,9.69 3.71,1.25 17.03,4.88 19.49,3.71 3.63,-2.46 3.63,-8.59 1.17,-8.59 -1.17,-1.17 -3.63,-1.17 -7.18,0 -6.14,0 -21.88,-4.81 -26.84,-8.36 -5.94,-4.85 -8.44,-9.77 -4.8,-12.23 4.8,-5.86 37.65,-5.86 44.92,-3.47 1.17,0 3.63,9.45 13.28,9.45 6.13,0 13.4,-5.98 17.03,-8.4 3.55,-3.44 7.3,-3.44 6.05,-7.19 0,-3.63 -6.05,-3.63 -12.18,-6.13 -3.64,0 -4.77,2.5 -4.77,6.13 0,3.75 -2.46,6.14 -8.47,3.75 -4.89,0 -13.4,-6.25 -20.67,-7.38 -9.69,-2.5 -29.06,-3.71 -32.73,-3.71 -3.6,0 -23.01,29.18 -29.14,32.73 -3.52,4.81 -1.21,7.27 -1.21,10.94 0,2.46 36.4,22.97 47.26,29.1 13.4,6.14 15.82,12.03 15.82,16.96 -2.42,8.43 -15.82,4.76 -23.05,-1.25 -7.34,-3.68 -25.5,-18.21 -29.14,-23.01 -4.8,-3.64 -10.89,-12.15 -14.53,-9.77 -6.05,1.25 -6.05,13.4 -8.44,17.07 -1.25,3.75 -4.88,3.75 -10.97,3.75 -8.52,-1.36 -12.15,-9.88 -30.24,-19.57 -8.59,-4.88 -12.14,-4.88 -15.78,-9.65 -2.46,-1.17 -2.46,-7.3 0,-9.76 3.64,-3.63 13.28,-1.17 19.34,0 4.88,0 9.73,4.88 13.36,6.13 1.17,0 13.32,-13.36 20.58,-19.34 7.35,-4.92 32.78,-36.4 36.41,-37.57 13.4,-8.44 29.14,-31.41 29.14,-32.78 1.17,-2.46 3.63,-5.93 0,-8.47 -6.09,-3.56 -6.09,-3.56 -6.09,-7.23 2.38,-2.5 16.99,-13.32 21.87,-15.82 4.81,0 18.21,0 20.55,6.17 3.67,1.13 -2.34,6.02 -3.59,9.65 -3.64,3.67 -3.64,13.24 -9.69,17.07 -7.27,3.63 -32.78,34.96 -32.78,34.96 0,1.33 17,4.88 20.63,3.71 4.88,-2.38 4.88,-9.72 12.15,-12.15 3.63,0 3.63,2.43 7.26,2.43 6.02,2.46 6.02,0 25.43,0 19.42,2.46 20.67,3.63 24.3,10.89 3.63,4.81 6.02,12.15 0,19.34" /><path
             id="path58"
             style="fill:#2b2859;fill-opacity:1;fill-rule:evenodd;stroke:none"
             d="m 2056.84,1887.34 c -1.21,3.68 -24.26,29.03 -30.32,32.66 -6.09,2.5 -9.72,2.5 -13.36,0 -2.38,-3.63 -7.26,-9.57 -9.64,-10.9 -1.18,-2.38 6.01,-8.44 9.64,-9.61 3.64,-3.59 9.73,-12.15 13.36,-13.4 6.06,-2.46 13.32,0 12.15,-5.89 0,-3.68 -12.15,-13.36 -18.24,-12.27 -10.9,0 -20.59,18.16 -32.73,27.97 -3.6,3.59 -10.9,3.59 -14.5,3.59 -3.63,3.6 -8.51,0 -8.51,-2.38 0,-3.71 4.88,-7.27 4.88,-11.02 1.21,-5.89 4.84,-8.32 10.9,-11.95 9.73,-6.21 19.37,-15.9 23.05,-19.57 2.38,-3.59 6.01,-7.15 -6.14,-13.32 -9.68,-6.02 -22.97,-9.65 -33.94,-6.02 -12.11,6.02 -19.42,13.32 -20.63,21.84 -2.42,6.05 -6.01,-2.5 -8.51,-8.52 -1.17,-4.8 -7.27,-13.32 -5.94,-16.95 2.3,-3.55 2.3,-5.94 12.03,-9.69 9.77,-1.21 32.81,-7.26 42.54,-6.09 20.59,2.38 27.85,18.2 32.7,18.2 1.17,0 4.8,-5.97 8.43,-8.36 2.46,-1.32 8.52,-13.47 15.78,-13.47 6.1,0 13.48,2.46 9.73,15.86 -2.38,5.97 -7.27,5.97 -15.78,16.95 0,3.55 4.88,12.07 6.05,12.07 2.46,-2.5 26.68,-2.5 30.32,0 2.46,1.17 6.09,13.24 4.92,15.7 0,3.75 -15.82,13.32 -18.24,14.57" /><path
             id="path60"
             style="fill:#2b2859;fill-opacity:1;fill-rule:evenodd;stroke:none"
             d="m 766.41,1303.48 c -2.461,-3.71 -4.89,-6.1 -7.351,-8.52 -19.411,-31.48 -46.09,-136.84 -37.579,-185.31 8.52,-44.81 12.149,-73.87 44.93,-113.912 z m 0,423.94 v -98.08 c -19.422,-18.21 -40.039,-21.84 -31.64,-33.83 4.878,-9.73 17.031,-8.6 31.64,-13.4 v -66.56 c -6.14,2.38 -13.359,2.38 -20.629,2.38 -40.082,-2.38 -63.121,-23.05 -63.121,-40.04 0,-18.16 19.41,-220.35 13.391,-254.37 -6.129,-35.16 -49.801,-148.95 -36.442,-204.69 15.782,-53.318 71.602,-104.182 84.922,-104.182 4.848,1.211 13.278,4.961 21.879,8.59 V 722.031 c -44.93,49.528 -132.23,151.449 -160.16,212.028 -38.871,83.521 -13.359,134.421 -2.379,219.261 12.07,84.77 8.43,221.72 -3.711,296.8 -13.32,102.89 17.031,110.08 49.801,142.89 30.238,30.19 63.008,36.33 71.519,81.13 3.641,32.77 -19.41,47.34 -21.832,65.35 -2.457,14.61 42.5,7.35 66.762,-12.07 m 0,-98.08 v 98.08 c 4.801,-3.63 9.641,-8.47 12.07,-13.32 15.739,-26.56 16.911,-55.62 -6.058,-78.63 -1.211,-2.5 -3.633,-4.92 -6.012,-6.13 m 0,-113.79 c 21.789,-4.96 36.32,-20.67 47.219,-24.26 v -2.54 59.34 c -2.457,4.92 -4.879,6.13 -8.43,9.61 -13.359,15.85 -27.969,21.91 -38.789,24.41 z m 0,-519.812 c 2.379,-3.707 4.801,-6.09 8.43,-9.648 10.898,-10.82 26.64,-19.371 38.789,-26.641 v 100.591 c -2.457,3.55 -4.879,7.3 -4.879,8.44 -13.359,24.22 -27.809,70.19 -18.09,123.51 7.27,50.9 3.559,68.01 20.512,77.5 l 2.457,1.33 v 81.05 c -19.41,-19.33 -37.578,-36.28 -47.219,-48.39 z m 0,-273.707 c 16.988,-19.453 27.809,-30.269 27.809,-30.269 0,0 -6.02,-19.422 -13.278,-35.16 -6.101,-17.032 9.719,-20.582 18.239,-20.582 2.3,0 9.57,7.261 14.449,16.949 V 825 c -18.238,10.941 -32.688,30.27 -38.789,46.051 -3.629,14.379 -19.41,24.258 6.101,30.199 4.797,0 18.239,0 32.688,-1.25 v 32.73 c -8.43,-2.378 -18.238,-2.378 -25.43,-2.378 -8.59,-1.172 -15.777,-3.633 -21.789,-7.114 z m 55.738,98.047 V 671.172 c -2.418,-3.633 -6.058,-10.902 -8.519,-15.781 V 825 c 2.461,-2.5 6.101,-3.629 8.519,-4.922 m 0,112.652 v -33.902 c -2.418,0 -6.058,0 -8.519,1.172 v 32.73 z m 0,112.66 v -90.742 l -8.519,4.801 v 100.591 c 2.461,-4.92 6.101,-9.77 8.519,-14.65 m 0,315 v -83.59 c -2.418,-1.18 -6.058,-3.6 -8.519,-5.98 v 81.05 z m 0,174.49 v -46.13 c -2.418,-1.17 -4.808,0 -8.519,0 v 59.34 c 3.711,-3.6 6.101,-8.44 8.519,-13.21 M 945.82,608.121 c 20.66,-8.473 40.078,-14.531 54.61,-18.16 v 118.668 c -10.899,2.461 -20.629,8.641 -13.282,26.801 2.383,8.359 8.442,18.09 13.282,27.808 V 822.5 c -14.532,-21.84 -37.578,-48.281 -54.61,-59.262 z m 54.61,847.859 c -20.629,0 -43.668,0 -54.61,2.5 v -37.46 c 17.032,6.13 40.078,11.99 54.61,11.99 z m -54.61,-381.41 c 13.399,50.86 31.559,106.52 40.078,136.76 1.25,3.75 9.692,2.54 14.532,6.13 v 36.33 c -1.211,0 -3.629,2.46 -1.211,6.21 0,1.05 1.211,5.94 1.211,9.49 v 76.41 -1.21 c -4.84,-15.82 -10.899,-35.08 -18.16,-54.49 -9.649,-33.95 1.171,-43.68 -26.68,-49.81 h -9.77 v -29.06 c 7.309,0 13.399,0 10.942,-1.21 -1.172,-5.94 -3.633,-25.39 -10.942,-48.36 z m 54.61,-98.281 c -13.282,2.539 -37.578,0 -54.61,0 v -28.91 c 9.77,-1.25 18.2,-1.25 24.34,-3.629 13.281,0 19.371,-1.211 30.27,-22.969 v -2.5 z m 0,-386.328 v 118.668 c 6.05,-1.168 14.53,-1.168 19.41,-1.168 3.64,0 8.44,-2.383 12.15,-2.383 V 585.199 c -8.51,0 -15.78,0 -23.04,2.379 -2.47,0 -6.1,2.383 -8.52,2.383 m 0,679.529 v 76.41 c 14.53,38.71 23.05,66.6 23.05,83.51 0,3.6 -7.27,6.14 -23.05,3.6 v 22.97 h 31.56 v -95.59 c -9.72,-25.39 -21.87,-60.62 -31.56,-90.9 m 0,-52.03 c 2.42,0 6.05,0 8.52,3.75 1.17,3.48 3.71,16.88 1.17,25.31 0,6.02 -4.81,6.02 -9.69,7.27 z m 31.56,-266.519 V 793.398 c -9.72,-5.937 -21.87,-16.796 -31.56,-30.16 V 822.5 c 9.69,12.191 15.78,20.699 15.78,25.469 3.63,13.402 -6.09,47.34 -15.78,70.312 v 58.008 c 2.42,0 4.88,-1.019 6.05,-1.019 12.15,-4.918 17,-8.551 25.51,-24.329 m 0,-365.742 c 14.46,-1.25 30.31,-3.679 42.42,-3.679 v 123.558 c -9.72,-6.129 -25.5,-2.5 -42.42,0 z m 0,775.191 c 7.27,26.6 13.28,43.56 14.46,47.23 2.46,6.21 18.24,4.88 27.96,4.88 v 37.62 c -6.09,3.55 -23.04,5.86 -42.42,5.86 z m 42.42,-482.07 c -21.87,-2.379 -29.14,-2.379 -37.57,39.961 -1.29,15.778 -3.64,25.469 -4.85,32.66 V 793.398 c 1.21,2.461 4.85,2.461 4.85,2.461 8.43,0 18.2,-31.488 21.83,-45.937 3.63,-8.442 10.9,-19.332 15.74,-29.141 v -2.422 101.719 c -2.46,6.133 -4.84,9.801 0,15.863 z m 0,408.2 c -8.47,-19.41 -18.16,-38.86 -21.87,-48.43 -19.34,-52.11 -23.05,-101.8 -10.9,-140.51 10.9,-36.41 23.05,-61.8 32.77,-80 v -2.38 z m 0,-705 v 123.558 c 3.68,3.551 3.68,7.262 0,13.281 V 818.98 c 1.25,-2.5 3.68,-6.128 4.89,-12.109 6.01,-16.949 13.32,-29.019 23.04,-61.75 8.44,-20.711 13.32,-32.781 19.34,-37.66 V 518.52 c -10.9,-8.559 -26.6,6.128 -26.6,6.128 0,0 3.63,10.903 6.05,20.512 3.6,6.129 3.6,13.391 7.27,20.578 3.63,12.071 -9.69,12.071 -33.99,15.782 m 0,830.98 c 1.25,0 1.25,0 3.68,1.33 9.64,3.44 13.36,25.27 -3.68,36.29 z m 47.27,-37.46 v -104.22 c -13.28,-10.82 -16.95,-46.13 -19.34,-66.64 -6.09,-41.29 6.06,-71.48 19.34,-96.95 V 828.629 c -3.63,1.25 -7.19,1.25 -10.9,3.75 -23.05,10.82 -25.47,15.59 -35.12,3.562 h -1.25 v 42.379 c 1.25,0 1.25,2.379 3.68,2.379 23.04,0 41.21,0 41.21,19.301 0,17.031 -7.27,50.941 -16.96,65.512 -7.26,13.316 -17.03,27.847 -27.93,49.688 v 271.32 c 8.52,21.84 18.21,42.35 24.3,54.53 7.27,16.96 13.32,22.97 22.97,33.99 m 0,179.18 v -46.06 c -6.02,6.14 -9.65,13.21 -7.19,29.14 1.17,7.19 3.56,13.21 7.19,16.92 m 0,-1035.7 c 0,1.21 2.46,1.21 2.46,1.21 3.67,6.051 8.44,18.2 10.9,32.77 3.71,18.09 7.34,22.891 7.34,22.891 0,0 25.47,-1.172 54.53,-3.442 v 110.039 c -4.88,1.332 -8.51,3.711 -9.68,7.383 -12.15,19.258 -2.46,44.809 9.68,77.5 v 94.5 c -12.14,-2.391 -15.7,32.688 -15.7,52.109 -2.46,16.872 -7.34,19.25 -3.71,45.969 0,9.61 9.73,3.563 19.41,-3.629 v 63.01 c -19.41,12.11 -42.46,31.44 -55.82,52.03 -6.05,9.65 -13.28,21.84 -19.41,35.12 v 1.25 -278.601 c 17.07,-9.649 26.76,-18.117 36.41,-21.758 12.14,-6.211 15.78,-14.57 7.34,-48.512 -9.84,-33.949 -14.61,-55.781 -27.97,-56.839 -6.05,0 -12.15,0 -15.78,5.941 z m 75.23,1001.83 c -9.68,10.82 -15.7,22.97 -23.04,27.74 -9.65,8.63 -38.83,23 -52.19,6.13 v -46.06 c 9.73,-7.26 25.51,-6.01 42.54,-12.03 20.55,-4.84 27.81,-24.33 23.01,-33.94 -17,-29.18 -36.41,-48.36 -54.65,-71.45 -4.77,-7.38 -8.44,-12.19 -10.9,-15.7 v -104.22 c 2.46,2.38 2.46,4.8 6.13,4.8 14.57,3.56 47.27,-37.53 69.1,-52.1 v 75.07 c -13.32,24.34 -29.06,56.92 -15.7,86.02 2.38,9.76 7.19,18.12 15.7,27.89 z m 64.26,-376.68 V 927.969 c -4.8,2.383 -9.61,0 -13.32,-1.25 -9.72,-3.481 -13.36,-21.68 -20.62,-54.418 -6.06,-33.981 -9.69,-32.731 -23.05,-78.903 -2.38,-7.226 -3.55,-16.796 -7.27,-25.308 v -1.219 94.5 c 10.98,1.168 13.4,33.938 14.61,48.399 6.02,22.96 9.65,27.851 -1.21,36.359 -2.42,1.25 -8.51,4.812 -13.4,9.691 v 63.01 -1.25 c 10.98,-6.02 20.63,-9.57 27.89,-9.57 8.52,0 25.47,78.67 36.37,135.66 m 0,100.47 v -34.02 c -14.53,3.75 -41.21,0 -56.99,7.34 -2.38,1.25 -3.55,3.75 -7.27,6.06 v 75.07 -2.3 c 4.89,-10.98 13.4,-20.67 17,-29.18 9.68,-13.32 29.06,-20.59 47.26,-22.97 m -64.26,-672.191 v 110.039 -2.418 c 14.61,-4.84 41.22,-1.129 64.26,3.75 V 570.59 h -3.63 c -13.32,0 -37.58,0 -60.63,1.359 m 64.26,919.341 v -31.56 c -9.61,-3.75 -16.95,-7.19 -26.68,-13.32 -13.32,-9.61 -26.6,-20.59 -37.58,-33.91 v 107.85 c 10.98,-18.2 23.05,-32.77 30.32,-31.6 7.26,0 20.62,2.54 33.94,2.54 m 0,-920.7 c 19.46,0 61.92,1.359 100.74,1.359 h 1.14 v 104.102 h -1.14 c -18.24,-6.051 -29.14,-1.321 -23.12,9.648 3.71,7.192 14.53,21.762 23.12,26.641 h 1.14 v 48.398 c 0,0 -1.14,0 -1.14,-2.379 -2.5,-16.879 -42.53,-53.281 -65.5,-65.468 -7.35,-1.129 -21.88,-7.192 -35.24,-9.571 z m 101.88,342.89 -1.14,1.168 c -23.12,27.891 -98.28,70.192 -98.28,70.192 -2.46,3.64 -2.46,7.191 -2.46,10.898 v 9.692 c 2.46,46.17 35.24,142.89 41.29,179.3 0,6.05 1.21,13.32 3.63,25.39 3.64,8.59 27.89,0 22.93,32.77 0,7.27 -5.93,24.22 -5.93,27.93 13.32,42.23 26.68,89.57 38.82,123.55 l 1.14,2.39 v 113.83 h -1.14 c -23.12,0 -44.92,-2.43 -61.87,-9.69 -10.98,-4.77 -25.51,-8.52 -38.87,-9.61 v -31.56 c 13.36,3.71 29.1,8.51 48.56,15.7 32.77,9.73 36.4,-11.99 36.4,-11.99 0,0 3.64,-18.28 -15.78,-70.32 -19.41,-54.57 -33.94,-142.96 -47.3,-148.98 -6.06,-1.25 -13.32,-1.25 -21.88,0 v -34.02 c 6.1,0 8.56,-2.23 8.56,-5.94 0,-3.67 -2.46,-26.76 -8.56,-55.86 V 927.969 c 9.73,-1.25 19.46,-13.321 32.78,-18.199 19.41,-12.11 32.77,-18.09 36.4,-58.168 3.63,-41.09 29.06,-69.024 31.56,-87.231 h 1.14 z m 0,483.28 c 9.68,26.68 16.95,48.4 19.49,52.03 7.26,13.4 32.62,20.51 40,23.01 21.8,1.25 16.99,13.36 7.23,24.33 -4.85,6.02 -26.57,9.53 -53.32,12.03 -6.1,2.43 -9.73,2.43 -13.4,2.43 z M 1468.59,1335 v -172.11 c -1.21,-13.32 -6.09,-26.6 -7.26,-37.46 -2.38,-29.1 0,-50.86 7.26,-64.26 V 797.109 c -9.64,-7.187 -19.41,-13.398 -29.06,-20.507 -26.76,-15.864 -26.76,-35.122 -20.62,-54.571 2.46,-16.953 30.27,-30.269 49.68,-32.66 V 531.84 c -10.86,-12.11 -29.06,-3.641 -29.06,-3.641 0,13.36 -3.63,9.731 2.38,20.672 3.64,13.199 6.06,23.078 6.06,23.078 h -84.92 v 104.102 c 19.49,7.269 21.83,7.269 25.54,25.469 1.21,13.32 -9.76,15.75 -19.41,13.32 -2.46,0 -3.63,0 -6.13,-2.5 v 201.14 c 3.67,-2.5 6.13,-6.14 6.13,-9.851 9.65,-25.309 20.62,-113.707 32.7,-116.168 10.89,-1.289 42.46,35.039 47.3,52.109 12.15,35.039 -36.41,75.078 -50.94,100.43 -15.7,25.512 -38.83,128.48 -13.36,213.32 10.98,41.09 51.02,123.48 83.71,181.68 m 0,-803.16 c 3.68,3.711 6.06,9.719 7.31,17.031 2.38,12.18 2.38,21.719 6.01,32.649 2.47,2.429 15.82,3.679 38.87,9.691 6.02,0 10.9,2.379 17.03,3.629 v 123.519 c -6.13,0 -7.38,7.34 -7.38,25.43 0,13.32 3.67,29.18 7.38,42.383 v 98.129 l -2.5,-2.352 c -4.88,-7.34 -8.51,-13.359 -14.53,-10.898 -6.09,0 -13.44,9.648 -25.43,32.578 -9.8,19.609 -14.61,43.75 2.38,61.883 7.31,7.187 14.57,10.777 23.05,10.777 6.02,2.539 10.9,0 17.03,0 v 42.541 c -6.13,2.38 -11.01,2.38 -17.03,3.63 -13.44,0 -23.05,6.06 -29.06,8.48 -7.34,7.34 -17.07,14.45 -23.13,29.1 v 1.13 -264.061 c 12.15,8.512 20.67,15.743 30.39,21.871 6.06,3.52 18.09,7.231 21.8,0 1.25,-3.781 1.25,-9.718 0,-19.449 -2.38,-3.672 -2.38,-6.133 -2.38,-7.23 -13.36,-35.192 -20.67,-100.539 -40.12,-102.93 h -9.69 z m 69.22,889.18 c -6.13,-3.75 -11.01,-8.52 -17.03,-13.4 -12.11,-9.61 -21.8,-19.46 -26.68,-29.07 -6.09,-10.89 -15.82,-24.29 -25.51,-41.05 v -174.61 2.5 c 9.69,44.73 25.51,88.4 30.39,98.09 8.36,13.32 12.07,6.01 21.8,-2.43 3.56,-1.05 6.02,-4.8 9.65,-4.8 1.25,0 4.88,-2.46 7.38,-3.71 z m 0,135.7 c -6.13,0 -11.01,0 -17.03,-2.5 -6.09,0 -9.73,-1.21 -13.44,-6.13 -25.43,-24.11 -9.61,-37.5 13.44,-45.94 6.02,-1.25 10.9,-3.56 17.03,-3.56 z m 46.02,-512.5 v -88.4 c -13.32,-27.851 -19.42,-71.519 -25.47,-94.449 -3.59,-15.711 -9.73,-35.16 -14.53,-55.75 -2.46,-6.09 -3.63,-12.223 -6.02,-19.449 v 98.129 c 2.39,3.59 3.56,7.379 6.02,11.008 1.17,9.73 3.63,22.972 7.26,41.062 7.27,26.641 2.43,33.981 -7.26,36.328 -2.46,2.571 -3.63,2.571 -3.63,2.571 l -2.39,1.019 v 42.541 h 6.02 c 10.94,0 22.97,2.38 30.31,6.05 3.63,1.14 6.06,9.69 9.69,19.34 m -46.02,-449.38 v 123.519 c 2.39,-1.089 3.56,-1.089 6.02,-1.089 7.26,1.089 19.41,7.14 37.5,13.32 h 2.5 V 614.102 c -15.78,-7.192 -29.06,-13.243 -40,-16.872 -2.46,0 -3.63,0 -6.02,-2.39 m 46.02,857.7 v -44.92 c -6.06,-4.89 -9.69,-10.86 -13.32,-14.5 -13.36,-23.04 -21.88,-29.1 -16.99,-70.19 1.25,-30.35 14.53,-47.31 30.31,-56.99 v -42.42 c -13.32,3.67 -29.06,16.87 -40,24.14 -2.46,2.5 -3.63,4.88 -6.02,4.88 v 168.48 c 2.39,2.42 3.56,2.42 6.02,4.8 10.94,9.73 26.68,16.91 40,26.72 m 0,88.36 v -58.13 c -7.27,4.81 -15.78,8.52 -23.05,9.61 -3.63,2.5 -12.15,2.5 -16.95,3.75 -2.46,0 -3.63,0 -6.02,2.46 v 58.13 h 6.02 c 10.94,-2.5 24.22,-8.63 36.37,-13.4 0,0 1.13,-2.42 3.63,-2.42 m 0,310.08 v -15.75 c -26.68,13.32 -26.68,21.84 0,15.75 m 0,-1236.878 c 9.72,3.707 19.3,9.847 30.35,13.476 v 117.543 c -9.65,-4.961 -20.63,-10.941 -30.35,-14.531 z m 30.35,894.058 c -7.27,13.21 -19.45,25.47 -30.35,32.74 v -58.13 c 9.72,-4.88 19.3,-10.97 26.64,-14.53 -7.34,-4.8 -16.92,-9.76 -26.64,-15.7 v -44.92 c 7.26,9.65 19.3,19.53 30.35,29.18 z m 0,-477.22 c -6.02,1.21 -3.71,20.66 0,52.07 v 174.53 c -9.65,-1.29 -20.63,0 -30.35,8.4 v -42.42 c 3.63,-2.31 7.26,-4.81 10.9,-4.81 8.4,2.5 18.16,4.81 19.45,5.98 v -1.17 c -1.29,-12.19 -9.65,-70.2 -16.99,-96.84 -3.64,-19.45 -7.19,-59.34 -13.36,-82.46 v -88.4 c 3.63,9.692 7.26,14.532 13.36,19.45 5.94,1.019 10.97,4.769 16.99,7.269 z m 0,810.31 c -3.71,0 -6.02,2.5 -9.65,3.75 -7.34,2.42 -14.53,3.55 -20.7,5.98 v -15.75 c 6.17,-3.63 10.9,-4.84 19.3,-9.57 3.78,-3.75 7.34,-4.96 11.05,-7.46 z m -792.032,-352.5 c 10.903,1.25 14.532,21.84 0,46.13 z m 0,-211.95 v 83.59 c 40.043,36.37 81.332,72.62 78.872,80 -1.18,32.66 -17,21.8 -36.411,42.38 -14.57,21.84 -6.058,60.55 44.84,31.53 23.09,-13.4 7.27,-41.25 30.391,-54.57 1.211,-1.25 3.601,-1.25 5.98,-1.25 v -37.46 c -4.769,-1.25 -8.48,-3.75 -13.281,-4.97 -25.508,-18.04 -36.41,-18.04 -52.187,-44.76 -29.063,-53.24 0,-61.68 10.898,-88.4 15.781,-30.35 32.77,-42.5 54.57,-42.5 v -29.06 c -12.109,0 -29.101,-1.21 -38.789,3.75 -16.91,9.61 -29.14,23.01 -53.359,54.41 -12.113,14.53 -21.793,12.19 -31.524,7.31 m 0,-605.628 v 148.906 c 3.711,-1.098 7.262,-2.348 12.114,-3.598 6.129,-1.281 15.777,19.461 19.41,38.79 3.668,19.339 13.316,32.621 3.668,38.789 -1.25,0 -16.949,2.312 -35.192,4.769 v 33.902 c 14.532,0 25.43,0 25.43,4.891 0,3.668 -10.898,9.758 -25.43,17.027 v 90.742 c 29.141,-37.38 59.372,-53.359 69.102,-52.031 12.23,2.379 19.41,66.681 36.449,106.641 6.012,17.03 13.352,40.04 18.121,61.76 v -88.44 c -13.281,-50.86 -22.929,-93.281 -18.121,-94.492 2.461,-2.539 9.641,-2.539 18.121,-2.539 v -28.91 c -15.66,2.422 -31.441,0 -35.16,-7.379 -1.211,-9.648 23.051,-42.34 19.5,-54.57 -9.808,-20.43 -36.488,2.461 -40.039,-9.489 -12.23,-36.371 -23.133,-72.703 -25.512,-82.543 -1.25,-15.546 15.743,-13.199 29.063,-23.007 15.777,-7.153 16.988,-25.27 40.039,-15.7 3.629,2.418 7.34,3.668 12.109,8.547 V 608.121 c -49.691,21.84 -101.871,52.149 -121.289,67.93 0,0 -1.172,-1.321 -2.383,-4.879 M 1684.49,799.531 V 671.172 c -2.42,-2.5 -6.01,-4.961 -8.51,-6.012 -21.8,-14.648 -42.46,-25.59 -61.8,-35.199 v 115.16 c 31.56,19.25 59.37,43.551 70.31,54.41 m 0,235.039 v -46.09 c -2.42,2.379 -6.01,3.551 -8.51,3.551 -16.92,0 -42.46,-3.551 -61.8,-9.492 v 48.401 c 21.8,-3.56 53.36,3.63 70.31,3.63 m 0,464.02 v -134.57 c -7.26,-22.97 -14.57,-47.22 -21.83,-73.82 -2.39,-9.81 13.32,-19.38 13.32,-30.2 -2.43,-35.31 -26.57,-29.18 -29.07,-41.29 -13.39,-49.57 -24.29,-99.3 -32.73,-134.45 v 173.28 c 3.63,2.46 5.98,2.46 8.44,2.46 10.9,5.94 17.03,45.98 23.12,72.54 4.81,27.85 24.18,84.73 30.24,103.01 6.09,14.57 3.71,43.59 -21.8,27.89 -10.94,-4.96 -24.3,-14.65 -40,-26.64 v 71.36 c 9.69,-12.03 15.7,-20.58 19.34,-29.02 17.03,8.44 30.31,13.24 36.4,15.74 4.88,1.25 9.77,2.46 14.57,3.71 m 0,305.16 v -44.84 c -21.83,22.96 -46.09,44.84 -70.31,59.29 v 23.05 c 23.05,-8.48 47.23,-21.72 70.31,-37.5 m 0,-44.84 v 44.84 c 35.16,-25.39 69.1,-56.91 98.28,-87.19 h 2.46 v -87.22 h -2.46 c -7.3,13.28 -14.64,26.64 -26.72,41.17 -14.53,19.37 -41.25,55.62 -71.56,88.4 m 0,-394.89 v 134.57 c 21.8,3.56 37.58,-2.46 37.58,-2.46 0,0 73.98,-13.36 -2.42,-37.65 -4.85,-1.18 -18.17,-40.04 -35.16,-94.46 m 0,-692.848 v 128.359 l 1.25,1.129 c 14.53,15.82 37.62,70.391 37.62,87.231 0,15.738 -18.24,83.629 -38.87,100.589 v 46.09 c 3.64,1.21 6.1,0 8.52,0 13.28,-6.05 36.4,-78.75 38.79,-84.769 0,0 -9.73,349.969 10.9,434.809 7.34,32.66 25.43,58.12 40.07,77.58 h 2.46 v -67.82 h -2.46 c -4.8,-11.01 -7.3,-20.66 -7.3,-26.71 0,-13.4 2.5,-30.16 7.3,-29.11 h 2.46 V 905.039 c 0,-1.41 0,-1.41 -2.46,-1.41 0,-3.629 -1.17,-8.32 -3.67,-11.949 -13.28,-34.02 -30.31,-55.739 -30.31,-55.739 -16.99,-26.679 -25.43,-48.48 9.69,-20.742 9.65,11.012 16.99,20.742 24.29,30.461 2.46,0 2.46,2.309 2.46,2.309 v -83.598 h -2.46 c -24.29,-26.562 -58.24,-64.101 -98.28,-93.199 m 220.74,899.918 c -14.57,21.92 -63,83.79 -120,145.47 v -87.22 c 43.68,-71.64 55.75,-124.73 55.75,-124.73 0,0 -29.14,-13.32 -55.75,-42.42 v -67.82 c 9.65,21.68 26.61,44.73 38.75,55.75 20.63,19.18 30.28,0 27.9,-9.73 -1.25,-23.12 -19.34,-39.96 -32.78,-47.27 -32.73,-25.46 -23.05,-47.22 -32.73,-52.07 -1.14,0 -1.14,0 -1.14,-2.5 V 905.039 c 19.34,51.949 16.96,83.441 15.67,146.561 -2.38,73.83 -6.02,146.45 1.29,134.38 9.65,-10.9 32.69,-105.47 32.69,-151.41 -2.34,-90.82 -2.34,-124.8 -49.65,-186.601 v -83.598 c 9.65,9.848 19.34,19.34 26.61,27.93 63.08,59.301 78.82,151.449 89.72,180.398 9.69,30.311 2.42,72.691 -16.87,127.301 -15.78,51.99 -36.37,124.69 -46.17,169.49 -10.9,43.56 -14.54,81.21 -1.25,100.59 11.05,18.08 13.36,20.66 31.64,10.9 15.78,-7.27 23,-26.72 15.78,-105.36 -7.31,-83.63 2.38,-102.92 25.39,-52.1 18.28,45.97 16.95,95.7 18.28,127.18 4.77,32.66 9.65,61.8 18.16,76.45 7.27,15.58 -13.39,100.47 -41.29,143.94" /><path
             id="path62"
             style="fill:#2b2859;fill-opacity:1;fill-rule:evenodd;stroke:none"
             d="m 250.941,943.75 c -3.671,2.379 -7.312,3.629 -10.941,6.051 -19.41,9.648 -32.77,26.488 -38.871,49.687 -4.801,21.722 -1.168,42.272 8.562,61.682 10.899,19.34 30.309,32.58 54.528,38.83 6.011,2.38 14.531,3.71 19.41,3.71 h 2.461 v -29.14 c -3.711,0 -7.34,-1.25 -13.391,-1.25 -26.648,-5.98 -44.847,-18.2 -55.711,-32.66 -9.758,-12.14 -9.758,-25.46 -7.297,-38.86 3.629,-15.71 13.321,-26.53 27.848,-32.741 4.84,-2.34 8.512,-3.547 12.152,-3.547 3.629,-2.5 7.219,-2.5 13.278,-2.5 h 1.25 c 4.84,0 8.48,0 9.73,2.5 h 9.68 l 2.461,1.207 v -29.098 c -12.141,0 -23.121,2.379 -35.149,6.129 m 35.149,-6.129 c 7.269,0 13.32,2.379 20.59,4.918 23.011,7.262 42.422,18.16 54.57,37.5 10.898,21.761 14.531,41.171 8.48,61.721 -4.851,21.83 -17,36.29 -36.41,48.55 -3.629,2.39 -7.191,3.44 -9.73,6.02 -1.168,0 -1.168,0 -1.168,1.25 -3.551,0 -7.344,2.42 -12.113,2.42 v 2.38 c -3.629,0 -7.297,0 -10.899,1.33 h -13.32 v -29.14 c 15.711,3.48 26.68,3.48 37.5,2.38 v -2.38 c 4.89,0 8.519,-1.25 12.23,-1.25 13.282,-5.98 20.629,-18.2 25.43,-31.56 3.629,-15.74 1.211,-29.03 -6.051,-39.96 -12.109,-13.32 -31.609,-25.511 -58.211,-32.741 -3.629,-2.34 -7.34,-2.34 -10.898,-2.34 z" /><path
             id="path64"
             style="fill:#2b2859;fill-opacity:1;fill-rule:evenodd;stroke:none"
             d="m 199.961,1211.33 123.629,9.88 2.539,-25.66 c 2.351,-4.77 0,-10.82 -2.539,-14.46 -1.168,-6.01 -3.551,-8.39 -8.512,-11.95 -2.308,-1.37 -8.398,-1.37 -15.668,-3.75 l 2.391,-6.13 37.648,6.13 -9.758,134.38 h -37.582 v -4.81 c 7.301,0 13.403,0 17.032,-4.76 5.937,-1.25 7.269,-4.89 9.73,-9.81 1.168,-3.59 1.168,-9.57 3.551,-16.91 v -19.34 l -124.844,-9.8 c -9.769,0 -14.648,0 -19.418,2.5 -3.711,1.25 -7.262,7.3 -7.262,15.7 v 5 l -3.707,-1.29 3.707,-70.27 h 5.942 v 6.01 c -2.391,6.06 0,12.19 1.32,15.9 4.77,2.23 9.649,2.23 21.801,3.44" /><path
             id="path66"
             style="fill:#2b2859;fill-opacity:1;fill-rule:evenodd;stroke:none"
             d="m 464.301,783.711 c 6.09,-1.133 9.758,-3.512 13.398,-10.742 l 2.461,-6.098 3.629,1.219 -25.508,51.988 -6.09,-1.098 4.84,-3.781 c 1.25,-5.937 3.707,-11.961 1.25,-15.668 -1.25,-3.672 -7.261,-7.23 -15.781,-13.359 l -86.051,-42.383 65.5,147.891 -20.66,38.672 h -3.629 c 3.629,-6.051 3.629,-7.114 3.629,-12.071 1.25,-3.633 1.25,-8.511 0,-10.941 0,-3.711 0,-7.34 -3.629,-15.66 L 293.359,839.57 c -7.269,-3.629 -13.398,-4.879 -16.91,-4.879 -6.219,0 -7.39,3.629 -12.23,8.508 l -1.25,5.942 -6.059,-1.172 26.719,-52.11 3.641,1.25 -1.18,6.129 c -3.711,6.024 -3.711,11.961 -2.461,15.742 2.461,1.098 6.019,6.02 15.781,10.899 l 89.77,46.062 -69.141,-158.671 2.383,-2.43 124.957,63.012 c 9.652,4.726 14.609,5.859 16.922,5.859" /><path
             id="path68"
             style="fill:#2b2859;fill-opacity:1;fill-rule:evenodd;stroke:none"
             d="m 556.559,561.051 3.64,1.019 -42.469,51.051 -3.628,-5 c 6.058,-3.59 7.187,-8.473 7.187,-10.891 v -7.269 c -1.129,-4.762 -4.809,-8.441 -10.898,-12.152 L 474.059,545.16 c -6.129,3.711 -12.071,6.129 -15.778,9.762 -6.09,2.348 -9.73,7.148 -15.781,10.816 -4.84,8.481 -8.48,18.211 -10.898,29.102 -2.461,12.07 0,25.39 6.058,38.871 4.84,12.07 14.531,22.891 26.641,34.961 15.859,10.898 32.769,19.379 49.801,20.699 19.418,2.391 36.328,-3.672 49.648,-20.699 9.801,-12.07 13.48,-25.391 13.48,-38.711 -1.25,-9.731 -6.21,-19.34 -10.941,-30.313 l 1.09,-4.808 38.871,37.539 -3.629,3.641 c -3.601,-2.309 -6.101,-3.641 -8.519,-3.641 -1.211,0 -3.59,0 -3.59,1.332 -1.25,2.309 -3.672,3.629 -3.672,9.57 -3.641,7.231 -7.231,13.321 -9.61,19.449 -1.25,3.481 -6.21,9.61 -9.851,13.321 -9.649,13.32 -22.969,21.719 -33.859,26.527 -17.04,4.883 -32.782,6.051 -52.192,2.5 -13.398,-3.558 -26.68,-9.769 -38.828,-19.379 -14.531,-13.359 -24.262,-29.097 -27.891,-48.359 -6.058,-26.719 1.211,-52.141 23.051,-76.289 7.262,-8.551 14.531,-15.891 23.078,-21.871 7.192,-3.629 16.961,-9.731 24.184,-13.399 L 525,558.551 c 6.051,5.937 12.148,9.648 15.859,9.648 3.551,2.391 9.571,-2.461 13.243,-6.129 z" /><path
             id="path70"
             style="fill:#2b2859;fill-opacity:1;fill-rule:evenodd;stroke:none"
             d="m 698.441,535.551 c 4.84,2.379 9.719,0 14.528,-3.711 l 6.09,-3.641 2.421,3.641 -55.82,43.551 -2.379,-3.442 3.598,-3.75 c 4.883,-2.461 6.051,-6.129 8.512,-9.648 v -7.262 c 0,-2.418 -3.629,-6.129 -9.731,-13.359 l -71.558,-88.481 c -3.59,-6.008 -7.262,-8.398 -10.903,-8.398 -3.59,-1.25 -5.969,-1.25 -7.219,0 -2.429,2.39 -2.429,5.98 0,9.609 1.25,7.192 1.25,13.32 1.25,15.82 0,3.68 -1.25,3.68 -3.679,6.059 -2.531,3.551 -6.172,3.551 -9.801,3.551 -3.551,0 -6.02,-2.34 -7.191,-5.93 -3.707,-3.68 -6.129,-7.43 -3.707,-13.32 0,-6.18 4.878,-12.27 10.898,-15.789 6.09,-6.09 15.859,-9.801 23.09,-9.801 9.68,0 17.031,3.711 23.082,8.551 7.269,3.64 15.668,9.648 23.047,20.469 l 52.152,61.96 c 4.801,9.61 9.68,13.321 13.32,13.321" /><path
             id="path72"
             style="fill:#2b2859;fill-opacity:1;fill-rule:evenodd;stroke:none"
             d="m 755.43,505.121 6.09,-4.73 c 3.64,-1.25 6.058,-3.711 7.269,-7.27 2.422,-2.5 2.422,-6.133 2.422,-7.301 0,-2.34 -3.633,-8.519 -6.051,-15.66 l -55.82,-92.148 c -3.641,-8.563 -7.27,-13.321 -10.899,-15.742 -3.64,-2.391 -9.691,0 -15.781,2.421 l -6.101,3.629 -1.168,-3.629 60.629,-37.543 2.46,6.051 -3.71,2.461 c -3.559,1.18 -6.059,4.809 -9.649,7.192 -2.391,3.707 -2.391,6.128 -2.391,7.308 0,4.84 3.641,8.391 8.481,15.86 l 53.359,91.832 c 6.09,8.628 9.649,14.687 10.821,15.898 6.089,2.34 12.148,0 18.238,-3.59 l 3.711,-2.43 1.25,4.809 -59.531,33.91 z" /><path
             id="path74"
             style="fill:#2b2859;fill-opacity:1;fill-rule:evenodd;stroke:none"
             d="m 1068.32,375.512 6.09,-1.141 c 7.31,-2.422 10.9,-4.922 13.32,-9.68 1.22,-2.421 1.22,-9.691 -2.42,-19.461 l -15.74,-65.39 c -3.63,-18 -9.69,-28.899 -13.32,-37.539 -4.88,-4.801 -10.98,-9.68 -20.7,-10.852 -12.07,-3.719 -19.34,-3.719 -30.24,0 -9.72,1.172 -15.779,3.551 -19.412,9.602 -6.097,3.719 -9.726,7.39 -12.109,13.359 -1.168,6.18 -1.168,10.942 0,20.629 0,8.512 0,15.699 2.383,21.832 l 19.418,71.449 c 1.211,9.692 3.629,13.399 7.26,16.95 2.46,2.39 7.27,3.64 13.36,2.39 l 7.27,-2.39 v 3.64 l -67.89,18.199 -2.461,-4.879 7.262,-1.179 c 6.089,-2.531 9.769,-3.711 12.23,-8.469 1.168,-3.672 1.168,-9.691 0,-18.211 l -17.031,-64.25 c -4.891,-19.383 -6.141,-32.66 -6.141,-39.891 1.25,-12.14 6.141,-21.789 13.403,-29.179 7.308,-9.602 20.589,-15.699 37.578,-21.75 15.78,-3.641 31.56,-3.641 41.21,0 10.9,6.051 18.24,12.148 24.3,19.328 6.01,8.562 9.72,21.961 13.36,36.41 l 16.95,65.43 c 2.46,9.691 4.88,15.781 6.09,18.082 6.06,3.719 12.15,6.14 16.96,3.719 l 6.01,-2.391 2.5,4.812 -58.24,14.649 z" /><path
             id="path76"
             style="fill:#2b2859;fill-opacity:1;fill-rule:evenodd;stroke:none"
             d="m 1276.99,356.25 h 6.06 c 7.22,0 10.9,-1.25 13.36,-6.09 1.25,-1.18 3.63,-9.691 3.63,-18.129 l -3.63,-97.031 -95.78,129.691 -46.18,1.329 v -6.141 c 6.1,0 9.77,0 10.98,-1.328 4.8,-2.301 8.44,-2.301 9.65,-3.551 3.67,-2.379 6.13,-6.02 12.15,-14.531 l -3.64,-112.739 c 0,-9.57 -2.38,-15.742 -4.84,-19.371 -3.67,-3.711 -7.3,-6.089 -14.53,-6.089 h -6.13 v -3.481 l 56.99,-2.379 v 3.512 h -4.77 c -6.13,0 -12.15,4.726 -13.4,6.058 -2.38,3.668 -4.88,9.68 -2.38,21.75 l 2.38,99.418 105.55,-136.949 h 3.63 l 3.64,141.832 c 0,8.438 1.21,14.528 3.63,16.949 3.63,3.641 7.27,6.02 15.66,6.02 h 4.96 v 3.551 l -56.99,3.719 z" /><path
             id="path78"
             style="fill:#2b2859;fill-opacity:1;fill-rule:evenodd;stroke:none"
             d="m 1465,219.301 h -12.15 c -3.67,2.5 -4.88,2.5 -7.3,3.629 0,4.8 -1.21,9.691 -3.64,18.121 l -19.37,105.508 c -3.63,9.691 -3.63,15.711 -1.17,19.461 3.55,3.429 7.26,5.929 13.28,8.351 l 4.88,1.141 v 3.828 l -70.35,-13.32 1.17,-3.75 h 18.24 c 1.21,-2.391 3.6,-2.391 4.85,-3.719 2.42,-2.301 2.42,-9.571 4.8,-18.082 L 1418.91,235 c 2.46,-9.648 2.46,-15.699 0,-19.34 0,-3.672 -6.14,-6.012 -13.4,-7.301 l -3.63,-2.379 v -3.71 l 69.14,13.39 v 3.641 z" /><path
             id="path80"
             style="fill:#2b2859;fill-opacity:1;fill-rule:evenodd;stroke:none"
             d="m 1604.53,427.621 2.38,-6.062 1.25,2.421 c 6.02,0 9.65,0 14.46,-2.421 1.25,0 3.71,-1.129 3.71,-3.547 1.17,-3.641 1.17,-10.903 1.17,-20.672 l -4.88,-104.18 -71.53,78.789 c -7.26,7.391 -10.89,10.942 -10.89,15.711 -2.39,3.672 -2.39,4.922 0,7.262 1.17,3.598 4.8,6.129 13.32,9.726 l -2.43,3.633 -63.08,-23.011 v -3.551 c 6.09,1.172 9.72,1.172 13.28,1.172 2.5,0 6.05,-1.172 9.76,-1.172 0,-2.379 3.64,-3.707 9.73,-12.27 l 105.55,-115.039 3.55,2.43 9.77,151.441 c 0,9.731 1.21,15.699 3.59,21.801 3.67,3.668 6.17,7.297 10.94,9.719 l -1.17,3.64 z" /><path
             id="path82"
             style="fill:#2b2859;fill-opacity:1;fill-rule:evenodd;stroke:none"
             d="m 1861.6,431.25 c 2.5,-10.82 0,-20.629 0,-26.602 -1.21,-6.128 -3.63,-12.066 -6.01,-13.316 -3.71,-3.672 -7.27,-8.441 -17.07,-13.32 l -23.05,-15.742 c -3.63,-2.391 -6.06,-2.391 -9.69,-2.391 -1.21,-1.328 -1.21,0 -3.59,0 -1.29,2.391 -3.67,4.812 -7.31,12.07 l -30.31,43.602 30.31,21.828 c 6.02,3.672 9.69,6.062 14.53,6.062 2.43,0 6.06,0 9.69,-2.39 2.46,0 6.1,-6.09 12.15,-10.969 l 1.29,3.668 -30.35,48.48 -3.67,-4.929 c 6.05,-7.141 6.05,-13.321 6.05,-19.449 -2.38,-3.442 -6.05,-8.403 -13.28,-14.411 l -31.6,-19.461 -36.33,55.75 38.75,25.391 c 7.27,3.828 10.98,7.258 15.86,7.258 3.63,2.5 7.26,0 10.82,-2.418 3.63,-1.012 9.73,-3.512 15.78,-10.82 l 3.59,1.25 -21.79,31.449 -106.68,-69.11 2.38,-5.89 4.88,3.43 c 3.64,3.71 9.69,6.21 13.32,3.71 4.85,0 8.56,-6.128 13.36,-14.531 l 59.46,-89.57 c 4.88,-7.258 8.51,-10.899 8.51,-14.649 0,-2.378 0,-4.761 -2.5,-8.39 -1.13,-3.641 -3.63,-4.809 -7.26,-7.309 l -3.71,-3.711 1.25,-3.55 108,69.062 -12.15,43.629 z" /><path
             id="path84"
             style="fill:#2b2859;fill-opacity:1;fill-rule:evenodd;stroke:none"
             d="m 1911.25,629.961 v -16.84 h -1.17 c -6.1,0 -9.65,-2.5 -15.78,-6.211 -2.39,-2.379 -3.64,-3.672 -6.02,-6.051 -3.59,-1.211 -7.26,-7.269 -10.9,-13.281 l 33.87,-38.707 v -33.992 l -39.96,42.391 c -7.19,7.218 -13.32,13.32 -15.7,13.32 -4.96,0 -9.81,-2.391 -14.61,-6.102 l -3.71,-5.937 -4.73,3.519 44.84,42.461 c 13.28,12.028 23.05,19.418 30.32,23.047 2.38,2.383 3.55,2.383 3.55,2.383 m 132.3,-78.672 c -4.88,-2.418 -17.03,-2.418 -27.92,1.211 l -59.46,9.57 c 8.52,12.149 13.4,23.129 13.4,32.77 -2.42,12.07 -6.13,19.262 -13.4,27.859 -6.01,4.879 -13.36,11.012 -23.04,11.012 h -6.1 c -3.63,0 -9.65,0 -13.32,-1.332 l -2.46,-2.418 v -16.84 h 2.46 c 9.69,0 16.95,-5 24.3,-12.262 8.51,-7.269 9.65,-15.66 9.65,-26.64 -1.14,-9.731 -7.27,-21.719 -19.3,-32.66 0,0 -1.33,0 -1.33,-2.379 0,0 -2.42,-1.25 -3.63,-1.25 l -12.15,10.941 v -33.992 l 35.27,-35.149 c 4.81,-5.98 9.65,-12 9.65,-13.25 1.25,-6.21 0,-12.07 -6.01,-17.031 l -3.64,-4.879 1.14,-3.519 52.18,52.07 -2.46,2.43 -4.76,-4.93 c -4.92,-4.801 -8.52,-4.801 -13.48,-4.801 -4.73,0 -9.57,3.668 -15.7,10.86 l -35.08,35.16 c 2.3,0 2.3,1.25 4.77,1.25 0,2.461 1.17,2.461 1.17,2.461 2.5,2.379 3.71,6.008 8.51,7.301 l 93.4,-14.653 32.85,29.071 -3.79,3.781 c -8.43,-6.129 -15.7,-9.762 -21.72,-9.762" /><path
             id="path86"
             style="fill:#2b2859;fill-opacity:1;fill-rule:evenodd;stroke:none"
             d="m 2142.97,731.68 c -4.84,3.75 -10.9,6.129 -16.99,6.129 -7.27,2.351 -13.32,0 -20.59,-2.379 -7.34,0 -19.41,-4.84 -35.23,-13.399 -18.17,-9.691 -31.49,-14.57 -40,-14.57 -6.1,-2.383 -9.73,0 -14.53,1.168 -4.85,6.211 -8.52,9.73 -9.73,17.07 0,8.481 1.21,15.781 4.88,24.223 4.85,4.769 9.65,8.437 18.17,13.316 7.26,3.633 14.6,4.852 23.04,3.633 7.27,0 14.53,-2.5 24.26,-8.512 l 3.63,4.879 -47.3,32.621 -2.42,-3.558 c 2.42,-2.379 3.63,-6.129 3.63,-6.129 v -5.973 c -1.21,-2.347 -4.84,-3.597 -9.73,-7.23 -8.43,-6.098 -14.53,-12.231 -20.54,-19.449 -7.27,-9.731 -10.9,-22.93 -9.77,-35.161 2.5,-13.281 8.59,-23.05 17.03,-30.308 6.02,-2.352 12.11,-6.063 18.17,-6.063 7.26,-2.418 13.35,0 20.62,1.332 7.27,2.379 19.49,8.442 33.95,14.45 14.53,7.308 23.04,10.859 27.93,13.32 4.84,1.25 10.89,1.25 14.53,1.25 6.09,0 8.51,-1.25 12.15,-4.879 7.26,-4.883 10.85,-9.691 10.85,-18.09 0,-7.383 -1.13,-17.031 -7.26,-24.211 -6.02,-8.558 -12.11,-12.191 -19.38,-15.75 -7.18,-3.629 -13.32,-6.129 -20.66,-6.129 -8.4,0 -15.7,3.629 -26.6,7.231 l -2.46,-1.102 46.09,-35.308 2.46,3.707 c -2.46,4.89 -4.88,6.14 -4.88,8.562 0,1.207 0,1.207 2.42,3.59 0,2.418 3.63,6.059 10.9,12.187 6.09,3.633 12.11,7.262 12.11,8.364 3.67,4.879 7.26,6.09 9.69,12.218 9.72,12 10.89,25.321 10.89,38.79 -3.55,13.32 -9.68,22.89 -19.33,30.16" /><path
             id="path88"
             style="fill:#2b2859;fill-opacity:1;fill-rule:evenodd;stroke:none"
             d="m 2243.67,839.57 c -2.5,-3.629 -3.67,-4.879 -8.55,-7.191 -1.21,-2.5 -3.6,-2.5 -7.23,-2.5 -2.42,0 -7.3,2.5 -13.32,6.062 l -95.86,48.36 c -9.69,6.129 -15.82,9.758 -17.03,11.008 -2.38,5.941 -2.38,9.73 1.21,15.671 l 2.5,6.051 -3.71,1.25 -31.52,-63.011 4.92,-2.418 1.17,6.128 c 2.46,3.559 3.63,6.02 7.27,8.321 2.46,1.289 6.13,3.75 8.51,3.75 1.25,-2.461 7.27,-3.75 14.53,-8.512 l 95.86,-47.34 c 9.69,-4.687 14.53,-8.328 15.78,-11.961 2.39,-3.707 2.39,-9.84 -1.25,-15.777 l -2.38,-4.883 3.63,-2.379 32.74,63 -3.67,2.461 z" /><path
             id="path90"
             style="fill:#2b2859;fill-opacity:1;fill-rule:evenodd;stroke:none"
             d="m 2300.63,1011.56 c -1.22,-6.13 -3.64,-9.76 -7.27,-12.072 -3.63,-1.328 -9.65,-1.328 -19.38,2.312 l -122.57,32.77 6.13,23.05 c 1.21,5.97 3.59,10.86 7.26,15.7 3.64,1.25 7.35,4.73 13.36,4.73 2.39,2.46 7.27,2.46 13.29,0 l 2.42,4.96 -36.33,9.69 -36.37,-133.251 36.37,-12.07 1.21,5.98 c -7.34,2.461 -10.9,6.09 -15.78,9.653 -3.59,3.707 -4.84,7.34 -4.84,12.258 0,3.558 0,9.57 1.25,16.761 l 6.01,19.529 122.46,-32.732 c 9.73,-2.539 13.4,-6.129 17.03,-8.476 2.39,-3.633 2.39,-9.653 0,-14.532 v -6.019 l 4.85,-2.422 16.95,70.201 h -3.55 z" /><path
             id="path92"
             style="fill:#2b2859;fill-opacity:1;fill-rule:evenodd;stroke:none"
             d="m 2339.41,1242.89 -2.38,-6.05 c 0,-6.02 -1.25,-12.15 -6.09,-13.32 -1.17,-2.31 -9.65,-4.81 -18.09,-2.31 l -42.54,2.31 -59.37,43.59 c -8.52,6.09 -13.36,12.07 -15.78,15.78 -3.71,2.42 -6.1,6.06 -7.35,12.07 -2.38,3.63 -2.38,4.81 -2.38,8.52 v 2.5 h -4.88 l -4.77,-58.32 h 6.02 c 0,4.88 0,8.59 2.38,9.88 1.25,2.46 1.25,3.51 3.63,3.51 1.25,2.43 3.64,2.43 6.06,2.43 4.92,0 8.55,-3.48 17.07,-7.23 l 49.72,-37.54 -55.82,-30.35 c -9.68,-3.63 -13.39,-7.27 -17.03,-7.27 -3.63,1.25 -6.01,3.64 -7.26,7.27 -2.39,2.42 -2.39,6.05 -2.39,9.69 v 3.75 h -3.71 l -6.01,-71.64 h 3.71 c 0,4.96 2.3,6.13 2.3,8.51 3.71,5 6.1,9.65 9.73,10.9 1.25,2.42 7.27,3.75 14.61,9.69 l 72.69,41.25 38.91,-4.96 c 9.65,0 15.74,0 16.99,-3.56 6.06,-1.21 8.4,-7.26 6.06,-14.57 v -5.97 h 3.59 l 6.06,71.44 z" /></g></g></g></g></svg>